<svg version="1.1" id="Layer_1" xmlns="http://www.w3.org/2000/svg" xmlns:xlink="http://www.w3.org/1999/xlink" x="0px" y="0px"
	width="100%" viewBox="0 0 715 716" enable-background="new 0 0 715 716" xml:space="preserve">
<path fill="#E05927" opacity="1.000000" stroke="none" 
	d="
M563.000000,0.999997 
	C564.714417,1.000000 566.428772,1.000000 568.783447,1.350662 
	C592.086914,3.607452 613.768005,9.375689 633.402832,20.823029 
	C678.729614,47.249180 706.537292,86.047371 714.229675,138.500916 
	C714.696655,141.685349 715.404358,144.834457 716.000000,148.000000 
	C716.000000,149.714401 716.000000,151.428787 715.697388,153.866425 
	C715.250000,155.899765 714.978577,157.209869 714.978394,158.520004 
	C714.960571,292.121246 714.959656,425.722473 715.007385,559.323730 
	C715.007935,560.882629 715.654785,562.441284 716.000000,564.000000 
	C716.000000,566.370605 716.000000,568.741211 715.644775,571.752869 
	C713.347412,594.424011 707.116699,615.314087 696.271118,634.438660 
	C673.772766,674.111206 640.400391,700.265564 596.077637,711.926636 
	C588.466980,713.928955 580.696594,715.324280 573.000000,717.000000 
	C429.644653,717.000000 286.289307,717.000000 142.278915,716.656860 
	C139.003860,715.853943 136.388367,715.366638 133.763199,714.938599 
	C104.989967,710.247070 79.283325,698.594116 57.006260,679.915100 
	C30.281254,657.506653 12.846396,629.108459 4.507740,595.183228 
	C3.422526,590.768127 2.173279,586.393433 1.000002,582.000000 
	C1.000000,581.250000 1.000000,580.500000 1.271921,579.057617 
	C1.695151,576.221252 1.978591,574.077209 1.978907,571.933228 
	C1.999770,430.527618 1.998695,289.122040 1.991284,147.716431 
	C1.991127,144.723434 1.894596,141.730453 1.834540,138.321060 
	C2.313214,134.445038 2.582202,130.938156 3.319850,127.532784 
	C17.092918,63.949020 67.870689,13.970415 132.576981,3.537427 
	C137.070862,2.812851 141.526550,1.851332 146.000000,1.000000 
	C148.041672,1.000000 150.083328,1.000000 152.858002,1.301762 
	C154.901123,1.748804 156.211258,2.021143 157.521408,2.021320 
	C291.122742,2.039355 424.724060,2.040375 558.325378,1.992672 
	C559.883728,1.992115 561.441772,1.345195 563.000000,0.999997 
M319.557037,536.941711 
	C319.557037,547.323669 319.557037,557.705688 319.557037,568.533875 
	C320.549042,567.623291 321.283508,566.998169 321.963257,566.318237 
	C379.098816,509.168182 436.245728,452.029419 493.276917,394.775391 
	C494.791870,393.254547 495.749359,390.490448 495.786621,388.286133 
	C496.749878,331.310333 497.556549,274.331879 498.387268,217.353836 
	C498.406067,216.063385 498.389618,214.772415 498.389618,213.053650 
	C496.019440,213.053650 494.065216,213.024445 492.112030,213.057907 
	C435.803009,214.022720 379.493378,214.957901 323.187775,216.092880 
	C320.895477,216.139099 318.113831,217.548233 316.445740,219.210846 
	C260.035187,275.436310 203.731552,331.768951 147.418930,388.092621 
	C146.414490,389.097229 145.489014,390.180786 143.745377,392.077393 
	C203.654083,391.144531 262.497833,390.228302 321.790863,389.305054 
	C321.050903,438.468781 320.316925,487.236694 319.557037,536.941711 
z"/>
<path fill="#FFFEFE" opacity="1.000000" stroke="none" 
	d="
M716.000000,147.531342 
	C715.404358,144.834457 714.696655,141.685349 714.229675,138.500916 
	C706.537292,86.047371 678.729614,47.249180 633.402832,20.823029 
	C613.768005,9.375689 592.086914,3.607452 569.211853,1.350662 
	C617.927002,1.000000 666.854004,1.000000 716.000000,1.000000 
	C716.000000,49.687344 716.000000,98.375015 716.000000,147.531342 
z"/>
<path fill="#FFFEFE" opacity="1.000000" stroke="none" 
	d="
M573.468628,717.000000 
	C580.696594,715.324280 588.466980,713.928955 596.077637,711.926636 
	C640.400391,700.265564 673.772766,674.111206 696.271118,634.438660 
	C707.116699,615.314087 713.347412,594.424011 715.644775,572.196960 
	C716.000000,620.259827 716.000000,668.519592 716.000000,717.000000 
	C668.645996,717.000000 621.291687,717.000000 573.468628,717.000000 
z"/>
<path fill="#FFFEFE" opacity="1.000000" stroke="none" 
	d="
M145.531342,1.000000 
	C141.526550,1.851332 137.070862,2.812851 132.576981,3.537427 
	C67.870689,13.970415 17.092918,63.949020 3.319850,127.532784 
	C2.582202,130.938156 2.313214,134.445038 1.592254,138.285461 
	C1.358452,138.666245 1.000000,139.000000 1.000000,139.000000 
	C1.000000,93.071198 1.000000,47.142399 1.000000,1.000000 
	C49.020683,1.000000 97.041679,1.000000 145.531342,1.000000 
z"/>
<path fill="#FFFEFE" opacity="1.000000" stroke="none" 
	d="
M1.000002,582.468628 
	C2.173279,586.393433 3.422526,590.768127 4.507740,595.183228 
	C12.846396,629.108459 30.281254,657.506653 57.006260,679.915100 
	C79.283325,698.594116 104.989967,710.247070 133.763199,714.938599 
	C136.388367,715.366638 139.003860,715.853943 141.811935,716.656860 
	C95.074608,717.000000 48.149208,717.000000 1.000000,717.000000 
	C1.000000,672.312683 1.000000,627.625000 1.000002,582.468628 
z"/>
<path fill="#E67B53" opacity="1.000000" stroke="none" 
	d="
M1.000000,139.468658 
	C1.000000,139.000000 1.358452,138.666245 1.600738,138.701843 
	C1.894596,141.730453 1.991127,144.723434 1.991284,147.716431 
	C1.998695,289.122040 1.999770,430.527618 1.978907,571.933228 
	C1.978591,574.077209 1.695151,576.221252 1.271921,578.682617 
	C1.000000,432.645782 1.000000,286.291534 1.000000,139.468658 
z"/>
<path fill="#E7835E" opacity="1.000000" stroke="none" 
	d="
M562.531372,0.999997 
	C561.441772,1.345195 559.883728,1.992115 558.325378,1.992672 
	C424.724060,2.040375 291.122742,2.039355 157.521408,2.021320 
	C156.211258,2.021143 154.901123,1.748804 153.295502,1.301762 
	C289.354218,1.000000 425.708466,1.000000 562.531372,0.999997 
z"/>
<path fill="#E7835E" opacity="1.000000" stroke="none" 
	d="
M716.000000,563.531372 
	C715.654785,562.441284 715.007935,560.882629 715.007385,559.323730 
	C714.959656,425.722473 714.960571,292.121246 714.978394,158.520004 
	C714.978577,157.209869 715.250000,155.899765 715.697388,154.294830 
	C716.000000,290.354218 716.000000,426.708466 716.000000,563.531372 
z"/>
<path fill="#FFFFFE" opacity="1.000000" stroke="none" 
	d="
M319.569977,536.473145 
	C320.316925,487.236694 321.050903,438.468781 321.790863,389.305054 
	C262.497833,390.228302 203.654083,391.144531 143.745377,392.077393 
	C145.489014,390.180786 146.414490,389.097229 147.418930,388.092621 
	C203.731552,331.768951 260.035187,275.436310 316.445740,219.210846 
	C318.113831,217.548233 320.895477,216.139099 323.187775,216.092880 
	C379.493378,214.957901 435.803009,214.022720 492.112030,213.057907 
	C494.065216,213.024445 496.019440,213.053650 498.389618,213.053650 
	C498.389618,214.772415 498.406067,216.063385 498.387268,217.353836 
	C497.556549,274.331879 496.749878,331.310333 495.786621,388.286133 
	C495.749359,390.490448 494.791870,393.254547 493.276917,394.775391 
	C436.245728,452.029419 379.098816,509.168182 321.963257,566.318237 
	C321.283508,566.998169 320.549042,567.623291 319.557037,568.533875 
	C319.557037,557.705688 319.557037,547.323669 319.569977,536.473145 
z"/>
</svg>