<?xml version="1.0" standalone="no"?>
<!DOCTYPE svg PUBLIC "-//W3C//DTD SVG 20010904//EN"
 "http://www.w3.org/TR/2001/REC-SVG-20010904/DTD/svg10.dtd">
<svg version="1.0" xmlns="http://www.w3.org/2000/svg"
 width="715.000000pt" height="716.000000pt" viewBox="0 0 715.000000 716.000000"
 preserveAspectRatio="xMidYMid meet">

<g transform="translate(0.000000,716.000000) scale(0.100000,-0.100000)"
fill="#000000" stroke="none">
<path d="M1336 7135 c-263 -44 -504 -145 -701 -294 -297 -223 -495 -523 -597
-901 l-23 -85 0 -2280 0 -2280 23 -80 c71 -245 152 -412 286 -590 241 -320
618 -541 1036 -607 69 -10 483 -13 2215 -13 2262 0 2162 -2 2360 46 621 152
1095 669 1190 1299 22 144 22 4314 1 4455 -61 396 -264 748 -576 998 -226 181
-462 285 -752 331 -86 14 -347 16 -2240 15 -1730 -1 -2158 -4 -2222 -14z
m3639 -2447 c-3 -194 -10 -598 -15 -898 l-10 -545 -886 -885 -886 -885 6 430
c3 237 9 641 13 899 l6 469 -384 -6 c-211 -4 -613 -10 -894 -13 l-510 -6 883
883 882 884 633 11 c347 6 753 11 900 12 l268 2 -6 -352z"/>
</g>
</svg>
