<svg width="85" height="85" viewBox="0 0 85 85" fill="none" xmlns="http://www.w3.org/2000/svg">
<circle cx="42.5" cy="42.5" r="41" stroke="#2D2D2D" stroke-width="3"/>
<path d="M38.6799 51.2367C38.623 51.4627 37.2012 56.7868 29.3806 56.7868C29.0712 56.7868 28.7745 56.6639 28.5557 56.4451C28.337 56.2263 28.214 55.9296 28.214 55.6202C28.214 47.7996 33.5381 46.3778 33.7641 46.3209C34.0644 46.2459 34.3823 46.2932 34.6477 46.4525C34.9131 46.6118 35.1043 46.87 35.1794 47.1704C35.2544 47.4707 35.207 47.7885 35.0477 48.0539C34.8884 48.3193 34.6302 48.5106 34.3299 48.5856C34.1987 48.622 31.0605 49.5393 30.6027 54.3982C35.4615 53.9403 36.3802 50.808 36.4181 50.6621C36.4955 50.3622 36.6888 50.1053 36.9556 49.9479C37.2224 49.7905 37.5407 49.7456 37.8407 49.8229C38.1406 49.9003 38.3975 50.0936 38.5549 50.3604C38.7123 50.6271 38.7572 50.9455 38.6799 51.2454V51.2367ZM52.2416 41.4081L51.546 42.1037V50.6096C51.5477 50.9172 51.4883 51.2221 51.3711 51.5065C51.2539 51.7908 51.0814 52.0491 50.8635 52.2662L45.8588 57.268C45.643 57.4853 45.3863 57.6578 45.1034 57.7755C44.8206 57.8931 44.5173 57.9535 44.211 57.9534C43.9582 57.9533 43.7071 57.9124 43.4673 57.8323C43.0556 57.6962 42.6902 57.4476 42.4124 57.1146C42.1346 56.7817 41.9555 56.3777 41.8953 55.9483L41.1122 50.3355L34.6653 43.8886L29.0555 43.1055C28.6255 43.0452 28.2209 42.8661 27.8871 42.5884C27.5534 42.3107 27.3037 41.9453 27.1663 41.5335C27.0289 41.1216 27.0091 40.6796 27.1092 40.2571C27.2092 39.8346 27.4252 39.4484 27.7328 39.142L32.7346 34.1373C32.9517 33.9194 33.21 33.7469 33.4944 33.6297C33.7787 33.5125 34.0836 33.4531 34.3912 33.4548H42.8971L43.5927 32.7593C47.4833 28.8701 52.1716 28.7024 54.006 28.8118C54.5749 28.8464 55.1114 29.0879 55.5143 29.4909C55.9173 29.8938 56.1588 30.4303 56.1934 30.9992C56.2998 32.8292 56.1322 37.5175 52.243 41.4081H52.2416ZM29.3806 40.7956L34.798 41.551L40.5639 35.788H34.3912L29.3806 40.7956ZM36.8644 42.7876L42.2132 48.1364L50.5908 39.7588C51.7198 38.6374 52.5957 37.2874 53.1596 35.7994C53.7236 34.3113 53.9624 32.7199 53.8602 31.1319C52.273 31.0334 50.6831 31.2748 49.1967 31.8399C47.7103 32.4049 46.3615 33.2806 45.2405 34.4085L36.8644 42.7876ZM49.2128 44.4369L43.4483 50.2013L44.2066 55.6202L49.2128 50.6096V44.4369Z" fill="#FC7A1E"/>
</svg>
