<svg width="85" height="85" viewBox="0 0 85 85" fill="none" xmlns="http://www.w3.org/2000/svg">
<circle cx="42.5" cy="42.5" r="41" stroke="#2D2D2D" stroke-width="3"/>
<path d="M59.2454 46.0541C59.1229 46.146 58.9834 46.2129 58.835 46.2509C58.6866 46.2889 58.5322 46.2974 58.3805 46.2757C58.2288 46.254 58.0829 46.2027 57.9511 46.1246C57.8193 46.0466 57.7041 45.9433 57.6122 45.8208C56.9091 44.8756 55.9938 44.1088 54.9402 43.582C53.8865 43.0551 52.7239 42.7831 51.5459 42.7876C51.3165 42.7876 51.0922 42.72 50.901 42.5931C50.7099 42.4663 50.5604 42.2859 50.4712 42.0745C50.4106 41.931 50.3794 41.7768 50.3794 41.621C50.3794 41.4653 50.4106 41.311 50.4712 41.1675C50.5604 40.9562 50.7099 40.7758 50.901 40.6489C51.0922 40.5221 51.3165 40.4545 51.5459 40.4544C52.2005 40.4544 52.8419 40.2708 53.3973 39.9244C53.9528 39.5781 54.4 39.0829 54.6881 38.4952C54.9762 37.9075 55.0937 37.2507 55.0273 36.5995C54.9609 35.9483 54.7132 35.3288 54.3123 34.8114C53.9115 34.2939 53.3735 33.8992 52.7596 33.6722C52.1457 33.4451 51.4804 33.3948 50.8393 33.5269C50.1982 33.659 49.607 33.9682 49.1328 34.4195C48.6587 34.8707 48.3206 35.4459 48.1569 36.0797C48.1186 36.2281 48.0515 36.3675 47.9593 36.49C47.8671 36.6124 47.7517 36.7155 47.6197 36.7934C47.4877 36.8713 47.3416 36.9224 47.1898 36.9438C47.0381 36.9652 46.8836 36.9565 46.7352 36.9182C46.5867 36.8799 46.4473 36.8127 46.3249 36.7206C46.2024 36.6284 46.0993 36.513 46.0214 36.381C45.9436 36.2489 45.8925 36.1029 45.8711 35.9511C45.8497 35.7993 45.8584 35.6448 45.8967 35.4964C46.1238 34.6175 46.5529 33.8038 47.1499 33.12C47.7468 32.4361 48.4951 31.9011 49.3353 31.5573C50.1754 31.2136 51.0842 31.0707 51.9893 31.1399C52.8944 31.2092 53.7708 31.4888 54.5488 31.9564C55.3269 32.424 55.985 33.0667 56.471 33.8334C56.9569 34.6002 57.2571 35.4697 57.3479 36.3729C57.4386 37.2761 57.3173 38.188 56.9936 39.0361C56.6698 39.8841 56.1527 40.6449 55.4832 41.2579C57.0695 41.9448 58.4484 43.0347 59.4831 44.4194C59.575 44.5423 59.6418 44.6821 59.6796 44.8308C59.7174 44.9795 59.7255 45.1342 59.7034 45.2861C59.6814 45.4379 59.6295 45.5839 59.551 45.7157C59.4724 45.8475 59.3685 45.9625 59.2454 46.0541ZM51.3884 55.0369C51.4728 55.1697 51.5295 55.3182 51.555 55.4734C51.5806 55.6287 51.5744 55.7875 51.537 55.9403C51.4996 56.0931 51.4316 56.2368 51.3372 56.3626C51.2428 56.4885 51.1239 56.594 50.9877 56.6727C50.8515 56.7515 50.7008 56.8019 50.5446 56.8208C50.3884 56.8398 50.23 56.827 50.0789 56.7831C49.9278 56.7393 49.7871 56.6654 49.6653 56.5657C49.5435 56.4661 49.4431 56.3429 49.3702 56.2035C48.6353 54.9591 47.5887 53.9279 46.3336 53.2115C45.0785 52.4951 43.6583 52.1183 42.2131 52.1183C40.768 52.1183 39.3478 52.4951 38.0927 53.2115C36.8376 53.9279 35.791 54.9591 35.0561 56.2035C34.9831 56.3429 34.8828 56.4661 34.761 56.5657C34.6392 56.6654 34.4985 56.7393 34.3474 56.7831C34.1963 56.827 34.0379 56.8398 33.8817 56.8208C33.7255 56.8019 33.5748 56.7515 33.4385 56.6727C33.3023 56.594 33.1834 56.4885 33.089 56.3626C32.9947 56.2368 32.9267 56.0931 32.8893 55.9403C32.8518 55.7875 32.8457 55.6287 32.8712 55.4734C32.8968 55.3182 32.9534 55.1697 33.0379 55.0369C34.1689 53.0936 35.8934 51.5643 37.958 50.6738C36.7962 49.7843 35.9424 48.5532 35.5166 47.1534C35.0907 45.7536 35.1142 44.2555 35.5838 42.8697C36.0534 41.484 36.9454 40.2802 38.1345 39.4277C39.3236 38.5751 40.75 38.1166 42.2131 38.1166C43.6763 38.1166 45.1027 38.5751 46.2917 39.4277C47.4808 40.2802 48.3729 41.484 48.8424 42.8697C49.312 44.2555 49.3355 45.7536 48.9097 47.1534C48.4838 48.5532 47.63 49.7843 46.4683 50.6738C48.5329 51.5643 50.2574 53.0936 51.3884 55.0369ZM42.2131 49.7872C43.1361 49.7872 44.0383 49.5135 44.8056 49.0008C45.573 48.488 46.1711 47.7592 46.5243 46.9066C46.8775 46.0539 46.9699 45.1156 46.7899 44.2105C46.6098 43.3053 46.1654 42.4738 45.5128 41.8212C44.8602 41.1686 44.0287 40.7242 43.1235 40.5441C42.2183 40.364 41.2801 40.4565 40.4274 40.8096C39.5747 41.1628 38.8459 41.7609 38.3332 42.5283C37.8204 43.2957 37.5467 44.1979 37.5467 45.1208C37.5467 46.3584 38.0384 47.5453 38.9135 48.4205C39.7886 49.2956 40.9755 49.7872 42.2131 49.7872ZM34.047 41.621C34.047 41.3116 33.924 41.0149 33.7053 40.7961C33.4865 40.5773 33.1898 40.4544 32.8804 40.4544C32.2258 40.4544 31.5844 40.2708 31.0289 39.9244C30.4735 39.5781 30.0263 39.0829 29.7382 38.4952C29.4501 37.9075 29.3325 37.2507 29.3989 36.5995C29.4654 35.9483 29.7131 35.3288 30.1139 34.8114C30.5148 34.2939 31.0527 33.8992 31.6667 33.6722C32.2806 33.4451 32.9459 33.3948 33.587 33.5269C34.2281 33.659 34.8193 33.9682 35.2934 34.4195C35.7676 34.8707 36.1057 35.4459 36.2693 36.0797C36.3467 36.3794 36.5399 36.6362 36.8066 36.7934C37.0732 36.9507 37.3914 36.9955 37.6911 36.9182C37.9908 36.8408 38.2476 36.6476 38.4048 36.381C38.5621 36.1143 38.607 35.7961 38.5296 35.4964C38.3025 34.6175 37.8734 33.8038 37.2764 33.12C36.6795 32.4361 35.9311 31.9011 35.091 31.5573C34.2509 31.2136 33.3421 31.0707 32.437 31.1399C31.5319 31.2092 30.6555 31.4888 29.8774 31.9564C29.0994 32.424 28.4412 33.0667 27.9553 33.8334C27.4694 34.6002 27.1691 35.4697 27.0784 36.3729C26.9877 37.2761 27.109 38.188 27.4327 39.0361C27.7564 39.8841 28.2736 40.6449 28.9431 41.2579C27.3584 41.9454 25.981 43.0353 24.9475 44.4194C24.7617 44.6669 24.6818 44.9781 24.7254 45.2846C24.769 45.591 24.9326 45.8675 25.1801 46.0534C25.4276 46.2392 25.7388 46.3191 26.0453 46.2755C26.3517 46.2319 26.6282 46.0683 26.8141 45.8208C27.5172 44.8756 28.4324 44.1088 29.4861 43.582C30.5397 43.0551 31.7024 42.7831 32.8804 42.7876C33.1898 42.7876 33.4865 42.6647 33.7053 42.4459C33.924 42.2272 34.047 41.9304 34.047 41.621Z" fill="#FC7A1E"/>
</svg>
